<svg width="18" height="20" viewBox="0 0 18 20" fill="none" xmlns="http://www.w3.org/2000/svg">
<path d="M9.0011 1C4.03054 1 0.0009422 5 1.0011 10C1.66638 13.3259 4.9863 16.4306 7.13488 18.1367C7.83712 18.6944 8.18824 18.9732 8.73346 19.0468C8.88461 19.0672 9.11759 19.0672 9.26875 19.0468C9.81397 18.9732 10.1651 18.6944 10.8673 18.1368C13.016 16.4306 16.336 13.3259 17.0011 10C18.001 5 13.9717 1 9.0011 1Z" stroke="black" stroke-width="1.5" stroke-linejoin="round"/>
<path d="M12.001 9.15C12.001 10.8069 10.6578 12.15 9.00098 12.15C7.34412 12.15 6.00098 10.8069 6.00098 9.15C6.00098 7.49315 7.34412 6.15 9.00098 6.15C10.6578 6.15 12.001 7.49315 12.001 9.15Z" stroke="black" stroke-width="1.5" stroke-linejoin="round"/>
</svg>
