<svg width="20" height="20" viewBox="0 0 20 20" fill="none" xmlns="http://www.w3.org/2000/svg">
<path d="M2.02513 2.02473L1.4949 1.49429L1.4949 1.49429L2.02513 2.02473ZM6.97487 2.02473L7.5051 1.49429L6.97487 2.02473ZM6.97487 6.97254L6.44465 6.44211L6.44465 6.44211L6.97487 6.97254ZM12.9853 12.9806L12.4551 12.4502L12.4551 12.4502L12.9853 12.9806ZM17.935 17.9284L17.4048 17.398L17.4048 17.398L17.935 17.9284ZM5.56066 14.3943L5.03043 14.9247L5.56066 14.3943ZM1.01853 4.85928L1.76852 4.85502C1.76838 4.83076 1.76707 4.80652 1.76458 4.78239L1.01853 4.85928ZM15.0994 18.9346L15.1762 18.1886C15.1521 18.1861 15.1279 18.1848 15.1036 18.1846L15.0994 18.9346ZM5.05559 7.95316L4.9372 7.21257C4.69728 7.25092 4.49081 7.40312 4.38319 7.62095C4.27556 7.83877 4.28013 8.09524 4.39544 8.3091L5.05559 7.95316ZM12.0043 14.8991L11.6486 15.5594C11.8624 15.6746 12.1188 15.6791 12.3366 15.5715C12.5543 15.4639 12.7065 15.2575 12.7449 15.0176L12.0043 14.8991ZM2.55535 2.55516C3.62932 1.48161 5.37068 1.48161 6.44465 2.55516L7.5051 1.49429C5.8454 -0.164764 3.1546 -0.164764 1.4949 1.49429L2.55535 2.55516ZM6.44465 2.55516C7.51845 3.62854 7.51845 5.36872 6.44465 6.44211L7.5051 7.50297C9.16497 5.84376 9.16497 3.15351 7.5051 1.49429L6.44465 2.55516ZM13.5155 13.511C14.5895 12.4375 16.3308 12.4375 17.4048 13.511L18.4653 12.4502C16.8055 10.7911 14.1148 10.7911 12.4551 12.4502L13.5155 13.511ZM17.4048 13.511C18.4786 14.5844 18.4786 16.3246 17.4048 17.398L18.4653 18.4589C20.1251 16.7996 20.1251 14.1094 18.4653 12.4502L17.4048 13.511ZM6.09089 13.8638C3.26504 11.0391 1.78435 7.6446 1.76852 4.85502L0.268544 4.86354C0.287109 8.13444 1.99291 11.8884 5.03043 14.9247L6.09089 13.8638ZM1.76458 4.78239C1.6825 3.98599 1.94644 3.16383 2.55535 2.55516L1.4949 1.49429C0.553198 2.43563 0.14608 3.70975 0.272484 4.93617L1.76458 4.78239ZM17.4048 17.398C16.7959 18.0067 15.9732 18.2706 15.1762 18.1886L15.0225 19.6807C16.2491 19.807 17.5236 19.4002 18.4653 18.4589L17.4048 17.398ZM15.1036 18.1846C12.3127 18.1688 8.91671 16.6886 6.09089 13.8638L5.03043 14.9247C8.06797 17.961 11.8232 19.6661 15.0951 19.6846L15.1036 18.1846ZM6.44465 6.44211C6.01844 6.86815 5.48913 7.12434 4.9372 7.21257L5.17398 8.69376C6.02737 8.55734 6.84804 8.15978 7.5051 7.50297L6.44465 6.44211ZM8.56576 11.3899C7.37781 10.2024 6.42284 8.90865 5.71575 7.59722L4.39544 8.3091C5.17383 9.75278 6.21742 11.1634 7.50531 12.4508L8.56576 11.3899ZM12.7449 15.0176C12.8331 14.4661 13.0893 13.9371 13.5155 13.511L12.4551 12.4502C11.798 13.107 11.4002 13.9274 11.2637 14.7807L12.7449 15.0176ZM12.36 14.2389C11.048 13.532 9.75371 12.5774 8.56576 11.3899L7.50531 12.4508C8.79319 13.7382 10.2044 14.7813 11.6486 15.5594L12.36 14.2389Z" fill="black"/>
</svg>
