<svg id="color" enable-background="new 0 0 64 64" height="512" viewBox="0 0 64 64" width="512" xmlns="http://www.w3.org/2000/svg"><path d="m32 13.22v3.78h-1c-1.1 0-2 .9-2 2v-10c0-1.13.31-2.18.85-3.08.84-1.39 2.22-2.42 3.85-2.78.42-.09.85-.14 1.3-.14h5.53c2.94 0 5.84-.68 8.47-2v6.5c0 .17-.01.33-.02.5-.16 2.09-1.31 3.91-2.98 4.97v.01c-1.01.64-2.21 1.02-3.5 1.02h-3.5v-4s-1.1 1.38-3.02 2.69c-1.26.86-2.72.97-3.98.53z" fill="#9a4738"/><g><path d="m36.084 6.621c1.773-.9 3.006-2.286 3.412-3.621h-4.496c-.45 0-.88.05-1.3.14-1.63.36-3.01 1.39-3.85 2.78-.047.079-.083.165-.126.246.987 1.552 3.755 1.777 6.36.455z" fill="#ae6c60"/></g><path d="m63 60v2c0 .552-.448 1-1 1h-60c-.552 0-1-.448-1-1v-2c0-.552.448-1 1-1h19 3 11 8 8 5.7.3 5c.552 0 1 .448 1 1z" fill="#fcb984"/><path d="m54 36v18c0 .55-.45 1-1 1h-10l-.36.03-.64-7.03h-6l-.64 7.03-.36-.03h-10c-.55 0-1-.45-1-1v-18c0-.55.45-1 1-1h14 14c.55 0 1 .45 1 1z" fill="#e0dae0"/><g fill="#a8a3a8"><path d="m24 54c0 .55.45 1 1 1h1 9l.41.03.267-3.197h-11.677z"/><path d="m53 35h-.38-1.287v11.417c0 2.992-2.425 5.417-5.417 5.417h-3.594l.267 3.197.411-.031h9 1c.55 0 1-.45 1-1v-18c0-.55-.45-1-1-1z"/></g><path d="m46 21v1c0 1.94-.78 3.68-2.05 4.95-.29.29-.61.56-.95.79-1.13.8-2.51 1.26-4 1.26s-2.87-.46-4-1.26c-1.82-1.26-3-3.36-3-5.74v-1-4-3.78c1.26.44 2.72.33 3.98-.53 1.92-1.31 3.02-2.69 3.02-2.69v4h3.5c1.29 0 2.49-.38 3.5-1.02v4.02z" fill="#fcbfa9"/><g><path d="m47.11 1.818c-1.496 4.183-5.483 7.182-10.18 7.182-4.38 0-7.93 3.55-7.93 7.93v2.07c0-1.1.9-2 2-2h1v-3.78c1.26.44 2.72.33 3.98-.53 1.92-1.31 3.02-2.69 3.02-2.69v4h3.5c1.29 0 2.49-.38 3.5-1.02v-.01c1.67-1.06 2.82-2.88 2.98-4.97.01-.17.02-.33.02-.5v-6.5c-.616.309-1.248.58-1.89.818z" fill="#73352a"/></g><g><path d="m42.5 14h-3.5v-4s-1.1 1.38-3.02 2.69c-1.26.86-2.72.97-3.98.53 0 1.891 1.533 3.423 3.423 3.423h4.628c1.891 0 3.423 1.533 3.423 3.423v7.317c1.549-1.291 2.526-3.212 2.526-5.383v-1-4-4.02c-1.01.64-2.21 1.02-3.5 1.02z" fill="#ed907a"/></g><g><path d="m61 59h-1.16c0 1.105-.895 2-2 2h-56.84v1c0 .552.448 1 1 1h60c.552 0 1-.448 1-1v-2c0-.552-.448-1-1-1z" fill="#ff9d5a"/></g><path d="m62.58 50.87c.26.69.11 1.48-.39 2.03l-5.19 5.77v-1.67c0-1.1-.9-2-2-2h-2c.55 0 1-.45 1-1l7-7 .11-.04z" fill="#fcbfa9"/><path d="m57.62 37.65 3.49 9.31-.11.04-7 7v-18c0-.55-.45-1-1-1h-14v-1c2.14 0 3.88-1.68 3.99-3.79l2.97.64 5.23 1.12c2.99.64 5.42 2.79 6.43 5.68z" fill="#235085"/><path d="m57 57v1.67l-.3.33h-5.7v-2c0-1.1.9-2 2-2h2c1.1 0 2 .9 2 2z" fill="#ed907a"/><path d="m43 55h10c-1.1 0-2 .9-2 2v2h-8l-.36-3.97z" fill="#235085"/><path d="m49 8v11c0-.55-.22-1.05-.59-1.41-.36-.37-.86-.59-1.41-.59h-1v-4.02-.01c1.67-1.06 2.82-2.88 2.98-4.97z" fill="#9a4738"/><path d="m48.41 17.59c.37.36.59.86.59 1.41 0 1.1-.9 2-2 2h-.19-.81v-4h1c.55 0 1.05.22 1.41.59z" fill="#fcbfa9"/><path d="m46.81 21c.12.98.19 1.98.19 3 0 2.39-.36 4.69-1.04 6.85l-2.97-.64c.01-.07.01-.14.01-.21v-2.26c.34-.23.66-.5.95-.79 1.27-1.27 2.05-3.01 2.05-4.95v-1z" fill="#e52c55"/><path d="m43 27.74v2.26c0 .07 0 .14-.01.21-.11 2.11-1.85 3.79-3.99 3.79-1.1 0-2.1-.45-2.83-1.17-.67-.68-1.11-1.6-1.16-2.62-.01-.07-.01-.14-.01-.21v-2.26c1.13.8 2.51 1.26 4 1.26s2.87-.46 4-1.26z" fill="#ed907a"/><path d="m42.64 55.03.36 3.97h-8l.36-3.97.64-7.03h6z" fill="#b2a6b2"/><path d="m39 34v1h-14c-.55 0-1 .45-1 1v18l-7-7-.11-.04.36-.96 1.41-3.76 1.72-4.59c1.01-2.89 3.44-5.04 6.43-5.68l8.19-1.76h.01c.05 1.02.49 1.94 1.16 2.62.73.72 1.73 1.17 2.83 1.17z" fill="#2f6bb2"/><path d="m35.36 55.03-.36 3.97h-11c.55 0 1-.45 1-1v-3h10z" fill="#2f6bb2"/><path d="m35 30c0 .07 0 .14.01.21h-.01l-8.19 1.76c-2.99.64-5.42 2.79-6.43 5.68l-1.72 4.59c-7.9-2.31-13.66-9.6-13.66-18.24 0-10.49 8.51-19 19-19 2.04 0 4.01.32 5.85.92-.54.9-.85 1.95-.85 3.08v10c0 .55.22 1.05.59 1.41.36.37.86.59 1.41.59h1v1c0 2.38 1.18 4.48 3 5.74z" fill="#e0dae0"/><path d="m35 30v-2.26c-1.82-1.26-3-3.36-3-5.74v-1h-1c-.55 0-1.05-.22-1.41-.59-.37-.36-.59-.86-.59-1.41v-10c0-1.13.31-2.18.85-3.08-1.84-.6-3.81-.92-5.85-.92-.504 0-1 .037-1.494.076 2.408 8.665 5.525 17.893 1.494 21.924-2.913 3.884-8.648 7.298-12.526 11.269 2.054 1.804 4.49 3.183 7.186 3.971l1.72-4.59c1.01-2.89 3.44-5.04 6.43-5.68l8.19-1.76h.01c-.01-.07-.01-.14-.01-.21z" fill="#a8a3a8"/><path d="m32 17v4h-1c-.55 0-1.05-.22-1.41-.59-.37-.36-.59-.86-.59-1.41 0-1.1.9-2 2-2z" fill="#fcbfa9"/><path d="m33.7 3.14c-1.63.36-3.01 1.39-3.85 2.78-1.84-.6-3.81-.92-5.85-.92-10.49 0-19 8.51-19 19 0 8.64 5.76 15.93 13.66 18.24l-1.41 3.76-.09-.03c-9.36-2.92-16.16-11.65-16.16-21.97 0-12.7 10.3-23 23-23 3.47 0 6.76.77 9.7 2.14z" fill="#e52c55"/><path d="m26 22v4h-4v-2-2h2z" fill="#b2a6b2"/><path d="m25 55v3c0 .55-.45 1-1 1h-3c-.55 0-1-.45-1-1v-.44-2.56c0-.55.45-1 1-1h3c0 .55.45 1 1 1z" fill="#ed907a"/><path d="m24 54h-3c-.55 0-1 .45-1 1v2.56l-4.19-4.66c-.5-.55-.65-1.34-.39-2.03l1.47-3.91.11.04z" fill="#fcbfa9"/><g><g><path d="m35 21.671c-.552 0-1-.448-1-1v-1c0-.552.448-1 1-1s1 .448 1 1v1c0 .553-.448 1-1 1z" fill="#606060"/></g><g><path d="m43 21.671c-.552 0-1-.448-1-1v-1c0-.552.448-1 1-1s1 .448 1 1v1c0 .553-.448 1-1 1z" fill="#606060"/></g></g><path d="m26 21h-1v-9.586l.293.293c.195.195.451.293.707.293s.512-.098.707-.293c.391-.391.391-1.023 0-1.414l-2-2c-.391-.391-1.023-.391-1.414 0l-2 2c-.391.391-.391 1.023 0 1.414s1.023.391 1.414 0l.293-.293v9.586h-1c-.552 0-1 .448-1 1v1h-5.586l.293-.293c.391-.391.391-1.023 0-1.414s-1.023-.391-1.414 0l-2 2c-.391.391-.391 1.023 0 1.414l2 2c.195.195.451.293.707.293s.512-.098.707-.293c.391-.391.391-1.023 0-1.414l-.293-.293h5.586v1c0 .552.448 1 1 1h4c.552 0 1-.448 1-1v-4c0-.552-.448-1-1-1zm-1 4h-2v-2h2z" fill="#606060"/><g fill="#ffc757"><path d="m53.5 6c-1.378 0-2.5 1.122-2.5 2.5 0 .552.448 1 1 1s1-.448 1-1c0-.276.224-.5.5-.5s.5.224.5.5v.223l-2.857 4.762c-.186.309-.19.694-.013 1.007.177.314.51.508.87.508h3c.552 0 1-.448 1-1s-.448-1-1-1h-1.234l2.091-3.485c.094-.156.143-.334.143-.515v-.5c0-1.378-1.122-2.5-2.5-2.5z"/><path d="m60 14c0 .552.448 1 1 1s1-.448 1-1v-2c.552 0 1-.448 1-1s-.448-1-1-1v-3c0-.552-.448-1-1-1s-1 .448-1 1v3h-1v-3c0-.552-.448-1-1-1s-1 .448-1 1v4c0 .552.448 1 1 1h2z"/><path d="m63 16c-.552 0-1 .448-1 1v1h-1v-1c0-.552-.448-1-1-1s-1 .448-1 1v4c0 .552.448 1 1 1s1-.448 1-1v-1h1v1c0 .552.448 1 1 1s1-.448 1-1v-4c0-.552-.448-1-1-1z"/></g><g><path d="m42 45h-6c-.552 0-1-.448-1-1s.448-1 1-1h6c.552 0 1 .448 1 1s-.448 1-1 1z" fill="#b2a6b2"/></g><g><path d="m29.152 3.843c-1.669-.427-3.397-.643-5.152-.643-11.469 0-20.8 9.331-20.8 20.8 0 8.532 5.31 16.226 13.126 19.338l-.077.204 1.694.609.717-1.911c-7.9-2.31-13.66-9.6-13.66-18.24 0-10.49 8.51-19 19-19 2.04 0 4.01.32 5.85.92.356-.589.814-1.108 1.341-1.544l-1.865-.719c-.058.062-.118.123-.174.186z" fill="#c03"/></g></svg>