<svg id="GUIDE_TO_DELETE" enable-background="new 0 0 128 128" height="512" viewBox="0 0 128 128" width="512" xmlns="http://www.w3.org/2000/svg"><g><path d="m124 31.1v65.32c0 1.91-.74 3.63-1.97 4.91-1.29 1.39-3.14 2.25-5.19 2.25h-105.68c-2.05 0-3.9-.86-5.19-2.25-1.23-1.28-1.97-3-1.97-4.91v-65.32c0-2.03.85-3.87 2.22-5.17 1.29-1.24 3.03-1.99 4.94-1.99h105.68c1.91 0 3.65.75 4.94 1.99 1.37 1.3 2.22 3.14 2.22 5.17z" fill="#ff9b2e"/><path d="m116.84 23.94h-105.68c-1.91 0-3.65.75-4.94 1.99l42.06 37.59 6.73 6.01c5.12 4.58 12.86 4.58 17.98 0l6.73-6.01 42.06-37.59c-1.29-1.24-3.03-1.99-4.94-1.99z" fill="#fecd1a"/><path d="m122.03 101.33c-1.29 1.39-3.14 2.25-5.19 2.25h-105.68c-2.05 0-3.9-.86-5.19-2.25l42.31-37.81 6.73 6.01c5.12 4.58 12.86 4.58 17.98 0l6.73-6.01z" fill="#ffb32c"/></g></svg>