<svg id="Layer_1" height="512" viewBox="0 0 80 80" width="512" xmlns="http://www.w3.org/2000/svg"><g><circle cx="40" cy="40" fill="#fd8369" r="40"/><path d="m80 40-22.002-22-3 3h-35.998c-1.657 0-3 1.343-3 3v28c0 .892.397 1.684 1.014 2.233.078.088 4.863 4.873 4.95 4.951.012.014.023.029.035.043v2.773l18 18c22.092 0 40.001-17.908 40.001-40z" fill="#ea6552"/><g><g><g fill="#fff"><path d="m19 55h38c1.657 0 3-1.343 3-3v-28c0-1.657-1.343-3-3-3h-38c-1.657 0-3 1.343-3 3v28c0 1.657 1.343 3 3 3z"/><path d="m29 55h-7v7z"/></g><g fill="#495057"><g><path d="m22 31h21v2h-21z"/><path d="m22 35h21v2h-21z"/><path d="m22 39h32v2h-32z"/><path d="m22 43h32v2h-32z"/><path d="m22 47h21v2h-21z"/></g><g><path d="m22 27h2v2h-2z"/><path d="m26 27h2v2h-2z"/><path d="m30 27h2v2h-2z"/></g></g></g><g><path d="m57.998 18-12.998 13v6h6l13-13z" fill="#58b4d9"/><path d="m57 19.757h2v8.485h-2z" fill="#495057" transform="matrix(.707 -.707 .707 .707 .017 48.042)"/></g></g></g></svg>